# vtk DataFile Version 3.0
Fiber 1D (two-element-thick 2D mesh), 300 um
ASCII
DATASET POLYDATA
POINTS 501 float
0 0 0
0.03 0 0
0.06 0 0
0.09 0 0
0.12 0 0
0.15 0 0
0.18 0 0
0.21 0 0
0.24 0 0
0.27 0 0
0.3 0 0
0.33 0 0
0.36 0 0
0.39 0 0
0.42 0 0
0.45 0 0
0.48 0 0
0.51 0 0
0.54 0 0
0.57 0 0
0.6 0 0
0.63 0 0
0.66 0 0
0.69 0 0
0.72 0 0
0.75 0 0
0.78 0 0
0.81 0 0
0.84 0 0
0.87 0 0
0.9 0 0
0.93 0 0
0.96 0 0
0.99 0 0
1.02 0 0
1.05 0 0
1.08 0 0
1.11 0 0
1.14 0 0
1.17 0 0
1.2 0 0
1.23 0 0
1.26 0 0
1.29 0 0
1.32 0 0
1.35 0 0
1.38 0 0
1.41 0 0
1.44 0 0
1.47 0 0
1.5 0 0
1.53 0 0
1.56 0 0
1.59 0 0
1.62 0 0
1.65 0 0
1.68 0 0
1.71 0 0
1.74 0 0
1.77 0 0
1.8 0 0
1.83 0 0
1.86 0 0
1.89 0 0
1.92 0 0
1.95 0 0
1.98 0 0
2.01 0 0
2.04 0 0
2.07 0 0
2.1 0 0
2.13 0 0
2.16 0 0
2.19 0 0
2.22 0 0
2.25 0 0
2.28 0 0
2.31 0 0
2.34 0 0
2.37 0 0
2.4 0 0
2.43 0 0
2.46 0 0
2.49 0 0
2.52 0 0
2.55 0 0
2.58 0 0
2.61 0 0
2.64 0 0
2.67 0 0
2.7 0 0
2.73 0 0
2.76 0 0
2.79 0 0
2.82 0 0
2.85 0 0
2.88 0 0
2.91 0 0
2.94 0 0
2.97 0 0
3 0 0
3.03 0 0
3.06 0 0
3.09 0 0
3.12 0 0
3.15 0 0
3.18 0 0
3.21 0 0
3.24 0 0
3.27 0 0
3.3 0 0
3.33 0 0
3.36 0 0
3.39 0 0
3.42 0 0
3.45 0 0
3.48 0 0
3.51 0 0
3.54 0 0
3.57 0 0
3.6 0 0
3.63 0 0
3.66 0 0
3.69 0 0
3.72 0 0
3.75 0 0
3.78 0 0
3.81 0 0
3.84 0 0
3.87 0 0
3.9 0 0
3.93 0 0
3.96 0 0
3.99 0 0
4.02 0 0
4.05 0 0
4.08 0 0
4.11 0 0
4.14 0 0
4.17 0 0
4.2 0 0
4.23 0 0
4.26 0 0
4.29 0 0
4.32 0 0
4.35 0 0
4.38 0 0
4.41 0 0
4.44 0 0
4.47 0 0
4.5 0 0
4.53 0 0
4.56 0 0
4.59 0 0
4.62 0 0
4.65 0 0
4.68 0 0
4.71 0 0
4.74 0 0
4.77 0 0
4.8 0 0
4.83 0 0
4.86 0 0
4.89 0 0
4.92 0 0
4.95 0 0
4.98 0 0
0 0.03 0
0.03 0.03 0
0.06 0.03 0
0.09 0.03 0
0.12 0.03 0
0.15 0.03 0
0.18 0.03 0
0.21 0.03 0
0.24 0.03 0
0.27 0.03 0
0.3 0.03 0
0.33 0.03 0
0.36 0.03 0
0.39 0.03 0
0.42 0.03 0
0.45 0.03 0
0.48 0.03 0
0.51 0.03 0
0.54 0.03 0
0.57 0.03 0
0.6 0.03 0
0.63 0.03 0
0.66 0.03 0
0.69 0.03 0
0.72 0.03 0
0.75 0.03 0
0.78 0.03 0
0.81 0.03 0
0.84 0.03 0
0.87 0.03 0
0.9 0.03 0
0.93 0.03 0
0.96 0.03 0
0.99 0.03 0
1.02 0.03 0
1.05 0.03 0
1.08 0.03 0
1.11 0.03 0
1.14 0.03 0
1.17 0.03 0
1.2 0.03 0
1.23 0.03 0
1.26 0.03 0
1.29 0.03 0
1.32 0.03 0
1.35 0.03 0
1.38 0.03 0
1.41 0.03 0
1.44 0.03 0
1.47 0.03 0
1.5 0.03 0
1.53 0.03 0
1.56 0.03 0
1.59 0.03 0
1.62 0.03 0
1.65 0.03 0
1.68 0.03 0
1.71 0.03 0
1.74 0.03 0
1.77 0.03 0
1.8 0.03 0
1.83 0.03 0
1.86 0.03 0
1.89 0.03 0
1.92 0.03 0
1.95 0.03 0
1.98 0.03 0
2.01 0.03 0
2.04 0.03 0
2.07 0.03 0
2.1 0.03 0
2.13 0.03 0
2.16 0.03 0
2.19 0.03 0
2.22 0.03 0
2.25 0.03 0
2.28 0.03 0
2.31 0.03 0
2.34 0.03 0
2.37 0.03 0
2.4 0.03 0
2.43 0.03 0
2.46 0.03 0
2.49 0.03 0
2.52 0.03 0
2.55 0.03 0
2.58 0.03 0
2.61 0.03 0
2.64 0.03 0
2.67 0.03 0
2.7 0.03 0
2.73 0.03 0
2.76 0.03 0
2.79 0.03 0
2.82 0.03 0
2.85 0.03 0
2.88 0.03 0
2.91 0.03 0
2.94 0.03 0
2.97 0.03 0
3 0.03 0
3.03 0.03 0
3.06 0.03 0
3.09 0.03 0
3.12 0.03 0
3.15 0.03 0
3.18 0.03 0
3.21 0.03 0
3.24 0.03 0
3.27 0.03 0
3.3 0.03 0
3.33 0.03 0
3.36 0.03 0
3.39 0.03 0
3.42 0.03 0
3.45 0.03 0
3.48 0.03 0
3.51 0.03 0
3.54 0.03 0
3.57 0.03 0
3.6 0.03 0
3.63 0.03 0
3.66 0.03 0
3.69 0.03 0
3.72 0.03 0
3.75 0.03 0
3.78 0.03 0
3.81 0.03 0
3.84 0.03 0
3.87 0.03 0
3.9 0.03 0
3.93 0.03 0
3.96 0.03 0
3.99 0.03 0
4.02 0.03 0
4.05 0.03 0
4.08 0.03 0
4.11 0.03 0
4.14 0.03 0
4.17 0.03 0
4.2 0.03 0
4.23 0.03 0
4.26 0.03 0
4.29 0.03 0
4.32 0.03 0
4.35 0.03 0
4.38 0.03 0
4.41 0.03 0
4.44 0.03 0
4.47 0.03 0
4.5 0.03 0
4.53 0.03 0
4.56 0.03 0
4.59 0.03 0
4.62 0.03 0
4.65 0.03 0
4.68 0.03 0
4.71 0.03 0
4.74 0.03 0
4.77 0.03 0
4.8 0.03 0
4.83 0.03 0
4.86 0.03 0
4.89 0.03 0
4.92 0.03 0
4.95 0.03 0
4.98 0.03 0
0 0.06 0
0.03 0.06 0
0.06 0.06 0
0.09 0.06 0
0.12 0.06 0
0.15 0.06 0
0.18 0.06 0
0.21 0.06 0
0.24 0.06 0
0.27 0.06 0
0.3 0.06 0
0.33 0.06 0
0.36 0.06 0
0.39 0.06 0
0.42 0.06 0
0.45 0.06 0
0.48 0.06 0
0.51 0.06 0
0.54 0.06 0
0.57 0.06 0
0.6 0.06 0
0.63 0.06 0
0.66 0.06 0
0.69 0.06 0
0.72 0.06 0
0.75 0.06 0
0.78 0.06 0
0.81 0.06 0
0.84 0.06 0
0.87 0.06 0
0.9 0.06 0
0.93 0.06 0
0.96 0.06 0
0.99 0.06 0
1.02 0.06 0
1.05 0.06 0
1.08 0.06 0
1.11 0.06 0
1.14 0.06 0
1.17 0.06 0
1.2 0.06 0
1.23 0.06 0
1.26 0.06 0
1.29 0.06 0
1.32 0.06 0
1.35 0.06 0
1.38 0.06 0
1.41 0.06 0
1.44 0.06 0
1.47 0.06 0
1.5 0.06 0
1.53 0.06 0
1.56 0.06 0
1.59 0.06 0
1.62 0.06 0
1.65 0.06 0
1.68 0.06 0
1.71 0.06 0
1.74 0.06 0
1.77 0.06 0
1.8 0.06 0
1.83 0.06 0
1.86 0.06 0
1.89 0.06 0
1.92 0.06 0
1.95 0.06 0
1.98 0.06 0
2.01 0.06 0
2.04 0.06 0
2.07 0.06 0
2.1 0.06 0
2.13 0.06 0
2.16 0.06 0
2.19 0.06 0
2.22 0.06 0
2.25 0.06 0
2.28 0.06 0
2.31 0.06 0
2.34 0.06 0
2.37 0.06 0
2.4 0.06 0
2.43 0.06 0
2.46 0.06 0
2.49 0.06 0
2.52 0.06 0
2.55 0.06 0
2.58 0.06 0
2.61 0.06 0
2.64 0.06 0
2.67 0.06 0
2.7 0.06 0
2.73 0.06 0
2.76 0.06 0
2.79 0.06 0
2.82 0.06 0
2.85 0.06 0
2.88 0.06 0
2.91 0.06 0
2.94 0.06 0
2.97 0.06 0
3 0.06 0
3.03 0.06 0
3.06 0.06 0
3.09 0.06 0
3.12 0.06 0
3.15 0.06 0
3.18 0.06 0
3.21 0.06 0
3.24 0.06 0
3.27 0.06 0
3.3 0.06 0
3.33 0.06 0
3.36 0.06 0
3.39 0.06 0
3.42 0.06 0
3.45 0.06 0
3.48 0.06 0
3.51 0.06 0
3.54 0.06 0
3.57 0.06 0
3.6 0.06 0
3.63 0.06 0
3.66 0.06 0
3.69 0.06 0
3.72 0.06 0
3.75 0.06 0
3.78 0.06 0
3.81 0.06 0
3.84 0.06 0
3.87 0.06 0
3.9 0.06 0
3.93 0.06 0
3.96 0.06 0
3.99 0.06 0
4.02 0.06 0
4.05 0.06 0
4.08 0.06 0
4.11 0.06 0
4.14 0.06 0
4.17 0.06 0
4.2 0.06 0
4.23 0.06 0
4.26 0.06 0
4.29 0.06 0
4.32 0.06 0
4.35 0.06 0
4.38 0.06 0
4.41 0.06 0
4.44 0.06 0
4.47 0.06 0
4.5 0.06 0
4.53 0.06 0
4.56 0.06 0
4.59 0.06 0
4.62 0.06 0
4.65 0.06 0
4.68 0.06 0
4.71 0.06 0
4.74 0.06 0
4.77 0.06 0
4.8 0.06 0
4.83 0.06 0
4.86 0.06 0
4.89 0.06 0
4.92 0.06 0
4.95 0.06 0
4.98 0.06 0
POLYGONS 332 1660
4 0 1 168 167
4 1 2 169 168
4 2 3 170 169
4 3 4 171 170
4 4 5 172 171
4 5 6 173 172
4 6 7 174 173
4 7 8 175 174
4 8 9 176 175
4 9 10 177 176
4 10 11 178 177
4 11 12 179 178
4 12 13 180 179
4 13 14 181 180
4 14 15 182 181
4 15 16 183 182
4 16 17 184 183
4 17 18 185 184
4 18 19 186 185
4 19 20 187 186
4 20 21 188 187
4 21 22 189 188
4 22 23 190 189
4 23 24 191 190
4 24 25 192 191
4 25 26 193 192
4 26 27 194 193
4 27 28 195 194
4 28 29 196 195
4 29 30 197 196
4 30 31 198 197
4 31 32 199 198
4 32 33 200 199
4 33 34 201 200
4 34 35 202 201
4 35 36 203 202
4 36 37 204 203
4 37 38 205 204
4 38 39 206 205
4 39 40 207 206
4 40 41 208 207
4 41 42 209 208
4 42 43 210 209
4 43 44 211 210
4 44 45 212 211
4 45 46 213 212
4 46 47 214 213
4 47 48 215 214
4 48 49 216 215
4 49 50 217 216
4 50 51 218 217
4 51 52 219 218
4 52 53 220 219
4 53 54 221 220
4 54 55 222 221
4 55 56 223 222
4 56 57 224 223
4 57 58 225 224
4 58 59 226 225
4 59 60 227 226
4 60 61 228 227
4 61 62 229 228
4 62 63 230 229
4 63 64 231 230
4 64 65 232 231
4 65 66 233 232
4 66 67 234 233
4 67 68 235 234
4 68 69 236 235
4 69 70 237 236
4 70 71 238 237
4 71 72 239 238
4 72 73 240 239
4 73 74 241 240
4 74 75 242 241
4 75 76 243 242
4 76 77 244 243
4 77 78 245 244
4 78 79 246 245
4 79 80 247 246
4 80 81 248 247
4 81 82 249 248
4 82 83 250 249
4 83 84 251 250
4 84 85 252 251
4 85 86 253 252
4 86 87 254 253
4 87 88 255 254
4 88 89 256 255
4 89 90 257 256
4 90 91 258 257
4 91 92 259 258
4 92 93 260 259
4 93 94 261 260
4 94 95 262 261
4 95 96 263 262
4 96 97 264 263
4 97 98 265 264
4 98 99 266 265
4 99 100 267 266
4 100 101 268 267
4 101 102 269 268
4 102 103 270 269
4 103 104 271 270
4 104 105 272 271
4 105 106 273 272
4 106 107 274 273
4 107 108 275 274
4 108 109 276 275
4 109 110 277 276
4 110 111 278 277
4 111 112 279 278
4 112 113 280 279
4 113 114 281 280
4 114 115 282 281
4 115 116 283 282
4 116 117 284 283
4 117 118 285 284
4 118 119 286 285
4 119 120 287 286
4 120 121 288 287
4 121 122 289 288
4 122 123 290 289
4 123 124 291 290
4 124 125 292 291
4 125 126 293 292
4 126 127 294 293
4 127 128 295 294
4 128 129 296 295
4 129 130 297 296
4 130 131 298 297
4 131 132 299 298
4 132 133 300 299
4 133 134 301 300
4 134 135 302 301
4 135 136 303 302
4 136 137 304 303
4 137 138 305 304
4 138 139 306 305
4 139 140 307 306
4 140 141 308 307
4 141 142 309 308
4 142 143 310 309
4 143 144 311 310
4 144 145 312 311
4 145 146 313 312
4 146 147 314 313
4 147 148 315 314
4 148 149 316 315
4 149 150 317 316
4 150 151 318 317
4 151 152 319 318
4 152 153 320 319
4 153 154 321 320
4 154 155 322 321
4 155 156 323 322
4 156 157 324 323
4 157 158 325 324
4 158 159 326 325
4 159 160 327 326
4 160 161 328 327
4 161 162 329 328
4 162 163 330 329
4 163 164 331 330
4 164 165 332 331
4 165 166 333 332
4 167 168 335 334
4 168 169 336 335
4 169 170 337 336
4 170 171 338 337
4 171 172 339 338
4 172 173 340 339
4 173 174 341 340
4 174 175 342 341
4 175 176 343 342
4 176 177 344 343
4 177 178 345 344
4 178 179 346 345
4 179 180 347 346
4 180 181 348 347
4 181 182 349 348
4 182 183 350 349
4 183 184 351 350
4 184 185 352 351
4 185 186 353 352
4 186 187 354 353
4 187 188 355 354
4 188 189 356 355
4 189 190 357 356
4 190 191 358 357
4 191 192 359 358
4 192 193 360 359
4 193 194 361 360
4 194 195 362 361
4 195 196 363 362
4 196 197 364 363
4 197 198 365 364
4 198 199 366 365
4 199 200 367 366
4 200 201 368 367
4 201 202 369 368
4 202 203 370 369
4 203 204 371 370
4 204 205 372 371
4 205 206 373 372
4 206 207 374 373
4 207 208 375 374
4 208 209 376 375
4 209 210 377 376
4 210 211 378 377
4 211 212 379 378
4 212 213 380 379
4 213 214 381 380
4 214 215 382 381
4 215 216 383 382
4 216 217 384 383
4 217 218 385 384
4 218 219 386 385
4 219 220 387 386
4 220 221 388 387
4 221 222 389 388
4 222 223 390 389
4 223 224 391 390
4 224 225 392 391
4 225 226 393 392
4 226 227 394 393
4 227 228 395 394
4 228 229 396 395
4 229 230 397 396
4 230 231 398 397
4 231 232 399 398
4 232 233 400 399
4 233 234 401 400
4 234 235 402 401
4 235 236 403 402
4 236 237 404 403
4 237 238 405 404
4 238 239 406 405
4 239 240 407 406
4 240 241 408 407
4 241 242 409 408
4 242 243 410 409
4 243 244 411 410
4 244 245 412 411
4 245 246 413 412
4 246 247 414 413
4 247 248 415 414
4 248 249 416 415
4 249 250 417 416
4 250 251 418 417
4 251 252 419 418
4 252 253 420 419
4 253 254 421 420
4 254 255 422 421
4 255 256 423 422
4 256 257 424 423
4 257 258 425 424
4 258 259 426 425
4 259 260 427 426
4 260 261 428 427
4 261 262 429 428
4 262 263 430 429
4 263 264 431 430
4 264 265 432 431
4 265 266 433 432
4 266 267 434 433
4 267 268 435 434
4 268 269 436 435
4 269 270 437 436
4 270 271 438 437
4 271 272 439 438
4 272 273 440 439
4 273 274 441 440
4 274 275 442 441
4 275 276 443 442
4 276 277 444 443
4 277 278 445 444
4 278 279 446 445
4 279 280 447 446
4 280 281 448 447
4 281 282 449 448
4 282 283 450 449
4 283 284 451 450
4 284 285 452 451
4 285 286 453 452
4 286 287 454 453
4 287 288 455 454
4 288 289 456 455
4 289 290 457 456
4 290 291 458 457
4 291 292 459 458
4 292 293 460 459
4 293 294 461 460
4 294 295 462 461
4 295 296 463 462
4 296 297 464 463
4 297 298 465 464
4 298 299 466 465
4 299 300 467 466
4 300 301 468 467
4 301 302 469 468
4 302 303 470 469
4 303 304 471 470
4 304 305 472 471
4 305 306 473 472
4 306 307 474 473
4 307 308 475 474
4 308 309 476 475
4 309 310 477 476
4 310 311 478 477
4 311 312 479 478
4 312 313 480 479
4 313 314 481 480
4 314 315 482 481
4 315 316 483 482
4 316 317 484 483
4 317 318 485 484
4 318 319 486 485
4 319 320 487 486
4 320 321 488 487
4 321 322 489 488
4 322 323 490 489
4 323 324 491 490
4 324 325 492 491
4 325 326 493 492
4 326 327 494 493
4 327 328 495 494
4 328 329 496 495
4 329 330 497 496
4 330 331 498 497
4 331 332 499 498
4 332 333 500 499
CELL_DATA 332
SCALARS source_element_id int 1
LOOKUP_TABLE default
1
2
3
4
5
6
7
8
9
10
11
12
13
14
15
16
17
18
19
20
21
22
23
24
25
26
27
28
29
30
31
32
33
34
35
36
37
38
39
40
41
42
43
44
45
46
47
48
49
50
51
52
53
54
55
56
57
58
59
60
61
62
63
64
65
66
67
68
69
70
71
72
73
74
75
76
77
78
79
80
81
82
83
84
85
86
87
88
89
90
91
92
93
94
95
96
97
98
99
100
101
102
103
104
105
106
107
108
109
110
111
112
113
114
115
116
117
118
119
120
121
122
123
124
125
126
127
128
129
130
131
132
133
134
135
136
137
138
139
140
141
142
143
144
145
146
147
148
149
150
151
152
153
154
155
156
157
158
159
160
161
162
163
164
165
166
167
168
169
170
171
172
173
174
175
176
177
178
179
180
181
182
183
184
185
186
187
188
189
190
191
192
193
194
195
196
197
198
199
200
201
202
203
204
205
206
207
208
209
210
211
212
213
214
215
216
217
218
219
220
221
222
223
224
225
226
227
228
229
230
231
232
233
234
235
236
237
238
239
240
241
242
243
244
245
246
247
248
249
250
251
252
253
254
255
256
257
258
259
260
261
262
263
264
265
266
267
268
269
270
271
272
273
274
275
276
277
278
279
280
281
282
283
284
285
286
287
288
289
290
291
292
293
294
295
296
297
298
299
300
301
302
303
304
305
306
307
308
309
310
311
312
313
314
315
316
317
318
319
320
321
322
323
324
325
326
327
328
329
330
331
332
SCALARS material_id int 1
LOOKUP_TABLE default
1
1
1
1
1
1
1
1
1
1
1
1
1
1
1
1
1
1
1
1
1
1
1
1
1
1
1
1
1
1
1
1
1
1
1
1
1
1
1
1
1
1
1
1
1
1
1
1
1
1
1
1
1
1
1
1
1
1
1
1
1
1
1
1
1
1
1
1
1
1
1
1
1
1
1
1
1
1
1
1
1
1
1
1
1
1
1
1
1
1
1
1
1
1
1
1
1
1
1
1
1
1
1
1
1
1
1
1
1
1
1
1
1
1
1
1
1
1
1
1
1
1
1
1
1
1
1
1
1
1
1
1
1
1
1
1
1
1
1
1
1
1
1
1
1
1
1
1
1
1
1
1
1
1
1
1
1
1
1
1
1
1
1
1
1
1
1
1
1
1
1
1
1
1
1
1
1
1
1
1
1
1
1
1
1
1
1
1
1
1
1
1
1
1
1
1
1
1
1
1
1
1
1
1
1
1
1
1
1
1
1
1
1
1
1
1
1
1
1
1
1
1
1
1
1
1
1
1
1
1
1
1
1
1
1
1
1
1
1
1
1
1
1
1
1
1
1
1
1
1
1
1
1
1
1
1
1
1
1
1
1
1
1
1
1
1
1
1
1
1
1
1
1
1
1
1
1
1
1
1
1
1
1
1
1
1
1
1
1
1
1
1
1
1
1
1
1
1
1
1
1
1
1
1
1
1
1
1
1
1
1
1
1
1
1
1
1
1
1
1
1
1
1
1
1
1
1
1
1
1
1
1
SCALARS cell_model_id int 1
LOOKUP_TABLE default
1
1
1
1
1
1
1
1
1
1
1
1
1
1
1
1
1
1
1
1
1
1
1
1
1
1
1
1
1
1
1
1
1
1
1
1
1
1
1
1
1
1
1
1
1
1
1
1
1
1
1
1
1
1
1
1
1
1
1
1
1
1
1
1
1
1
1
1
1
1
1
1
1
1
1
1
1
1
1
1
1
1
1
1
1
1
1
1
1
1
1
1
1
1
1
1
1
1
1
1
1
1
1
1
1
1
1
1
1
1
1
1
1
1
1
1
1
1
1
1
1
1
1
1
1
1
1
1
1
1
1
1
1
1
1
1
1
1
1
1
1
1
1
1
1
1
1
1
1
1
1
1
1
1
1
1
1
1
1
1
1
1
1
1
1
1
1
1
1
1
1
1
1
1
1
1
1
1
1
1
1
1
1
1
1
1
1
1
1
1
1
1
1
1
1
1
1
1
1
1
1
1
1
1
1
1
1
1
1
1
1
1
1
1
1
1
1
1
1
1
1
1
1
1
1
1
1
1
1
1
1
1
1
1
1
1
1
1
1
1
1
1
1
1
1
1
1
1
1
1
1
1
1
1
1
1
1
1
1
1
1
1
1
1
1
1
1
1
1
1
1
1
1
1
1
1
1
1
1
1
1
1
1
1
1
1
1
1
1
1
1
1
1
1
1
1
1
1
1
1
1
1
1
1
1
1
1
1
1
1
1
1
1
1
1
1
1
1
1
1
1
1
1
1
1
1
1
1
1
1
1
1
VECTORS fiber_orientation float
1 0 0
1 0 0
1 0 0
1 0 0
1 0 0
1 0 0
1 0 0
1 0 0
1 0 0
1 0 0
1 0 0
1 0 0
1 0 0
1 0 0
1 0 0
1 0 0
1 0 0
1 0 0
1 0 0
1 0 0
1 0 0
1 0 0
1 0 0
1 0 0
1 0 0
1 0 0
1 0 0
1 0 0
1 0 0
1 0 0
1 0 0
1 0 0
1 0 0
1 0 0
1 0 0
1 0 0
1 0 0
1 0 0
1 0 0
1 0 0
1 0 0
1 0 0
1 0 0
1 0 0
1 0 0
1 0 0
1 0 0
1 0 0
1 0 0
1 0 0
1 0 0
1 0 0
1 0 0
1 0 0
1 0 0
1 0 0
1 0 0
1 0 0
1 0 0
1 0 0
1 0 0
1 0 0
1 0 0
1 0 0
1 0 0
1 0 0
1 0 0
1 0 0
1 0 0
1 0 0
1 0 0
1 0 0
1 0 0
1 0 0
1 0 0
1 0 0
1 0 0
1 0 0
1 0 0
1 0 0
1 0 0
1 0 0
1 0 0
1 0 0
1 0 0
1 0 0
1 0 0
1 0 0
1 0 0
1 0 0
1 0 0
1 0 0
1 0 0
1 0 0
1 0 0
1 0 0
1 0 0
1 0 0
1 0 0
1 0 0
1 0 0
1 0 0
1 0 0
1 0 0
1 0 0
1 0 0
1 0 0
1 0 0
1 0 0
1 0 0
1 0 0
1 0 0
1 0 0
1 0 0
1 0 0
1 0 0
1 0 0
1 0 0
1 0 0
1 0 0
1 0 0
1 0 0
1 0 0
1 0 0
1 0 0
1 0 0
1 0 0
1 0 0
1 0 0
1 0 0
1 0 0
1 0 0
1 0 0
1 0 0
1 0 0
1 0 0
1 0 0
1 0 0
1 0 0
1 0 0
1 0 0
1 0 0
1 0 0
1 0 0
1 0 0
1 0 0
1 0 0
1 0 0
1 0 0
1 0 0
1 0 0
1 0 0
1 0 0
1 0 0
1 0 0
1 0 0
1 0 0
1 0 0
1 0 0
1 0 0
1 0 0
1 0 0
1 0 0
1 0 0
1 0 0
1 0 0
1 0 0
1 0 0
1 0 0
1 0 0
1 0 0
1 0 0
1 0 0
1 0 0
1 0 0
1 0 0
1 0 0
1 0 0
1 0 0
1 0 0
1 0 0
1 0 0
1 0 0
1 0 0
1 0 0
1 0 0
1 0 0
1 0 0
1 0 0
1 0 0
1 0 0
1 0 0
1 0 0
1 0 0
1 0 0
1 0 0
1 0 0
1 0 0
1 0 0
1 0 0
1 0 0
1 0 0
1 0 0
1 0 0
1 0 0
1 0 0
1 0 0
1 0 0
1 0 0
1 0 0
1 0 0
1 0 0
1 0 0
1 0 0
1 0 0
1 0 0
1 0 0
1 0 0
1 0 0
1 0 0
1 0 0
1 0 0
1 0 0
1 0 0
1 0 0
1 0 0
1 0 0
1 0 0
1 0 0
1 0 0
1 0 0
1 0 0
1 0 0
1 0 0
1 0 0
1 0 0
1 0 0
1 0 0
1 0 0
1 0 0
1 0 0
1 0 0
1 0 0
1 0 0
1 0 0
1 0 0
1 0 0
1 0 0
1 0 0
1 0 0
1 0 0
1 0 0
1 0 0
1 0 0
1 0 0
1 0 0
1 0 0
1 0 0
1 0 0
1 0 0
1 0 0
1 0 0
1 0 0
1 0 0
1 0 0
1 0 0
1 0 0
1 0 0
1 0 0
1 0 0
1 0 0
1 0 0
1 0 0
1 0 0
1 0 0
1 0 0
1 0 0
1 0 0
1 0 0
1 0 0
1 0 0
1 0 0
1 0 0
1 0 0
1 0 0
1 0 0
1 0 0
1 0 0
1 0 0
1 0 0
1 0 0
1 0 0
1 0 0
1 0 0
1 0 0
1 0 0
1 0 0
1 0 0
1 0 0
1 0 0
1 0 0
1 0 0
1 0 0
1 0 0
1 0 0
1 0 0
1 0 0
1 0 0
1 0 0
1 0 0
1 0 0
1 0 0
1 0 0
1 0 0
1 0 0
1 0 0
1 0 0
1 0 0
1 0 0
1 0 0
1 0 0
1 0 0
1 0 0
1 0 0
1 0 0
1 0 0
1 0 0
1 0 0
1 0 0
1 0 0
1 0 0
1 0 0
POINT_DATA 501
SCALARS source_node_id int 1
LOOKUP_TABLE default
1
2
3
4
5
6
7
8
9
10
11
12
13
14
15
16
17
18
19
20
21
22
23
24
25
26
27
28
29
30
31
32
33
34
35
36
37
38
39
40
41
42
43
44
45
46
47
48
49
50
51
52
53
54
55
56
57
58
59
60
61
62
63
64
65
66
67
68
69
70
71
72
73
74
75
76
77
78
79
80
81
82
83
84
85
86
87
88
89
90
91
92
93
94
95
96
97
98
99
100
101
102
103
104
105
106
107
108
109
110
111
112
113
114
115
116
117
118
119
120
121
122
123
124
125
126
127
128
129
130
131
132
133
134
135
136
137
138
139
140
141
142
143
144
145
146
147
148
149
150
151
152
153
154
155
156
157
158
159
160
161
162
163
164
165
166
167
168
169
170
171
172
173
174
175
176
177
178
179
180
181
182
183
184
185
186
187
188
189
190
191
192
193
194
195
196
197
198
199
200
201
202
203
204
205
206
207
208
209
210
211
212
213
214
215
216
217
218
219
220
221
222
223
224
225
226
227
228
229
230
231
232
233
234
235
236
237
238
239
240
241
242
243
244
245
246
247
248
249
250
251
252
253
254
255
256
257
258
259
260
261
262
263
264
265
266
267
268
269
270
271
272
273
274
275
276
277
278
279
280
281
282
283
284
285
286
287
288
289
290
291
292
293
294
295
296
297
298
299
300
301
302
303
304
305
306
307
308
309
310
311
312
313
314
315
316
317
318
319
320
321
322
323
324
325
326
327
328
329
330
331
332
333
334
335
336
337
338
339
340
341
342
343
344
345
346
347
348
349
350
351
352
353
354
355
356
357
358
359
360
361
362
363
364
365
366
367
368
369
370
371
372
373
374
375
376
377
378
379
380
381
382
383
384
385
386
387
388
389
390
391
392
393
394
395
396
397
398
399
400
401
402
403
404
405
406
407
408
409
410
411
412
413
414
415
416
417
418
419
420
421
422
423
424
425
426
427
428
429
430
431
432
433
434
435
436
437
438
439
440
441
442
443
444
445
446
447
448
449
450
451
452
453
454
455
456
457
458
459
460
461
462
463
464
465
466
467
468
469
470
471
472
473
474
475
476
477
478
479
480
481
482
483
484
485
486
487
488
489
490
491
492
493
494
495
496
497
498
499
500
501
SCALARS S1_nodes int 1
LOOKUP_TABLE default
1
1
1
1
1
0
0
0
0
0
0
0
0
0
0
0
0
0
0
0
0
0
0
0
0
0
0
0
0
0
0
0
0
0
0
0
0
0
0
0
0
0
0
0
0
0
0
0
0
0
0
0
0
0
0
0
0
0
0
0
0
0
0
0
0
0
0
0
0
0
0
0
0
0
0
0
0
0
0
0
0
0
0
0
0
0
0
0
0
0
0
0
0
0
0
0
0
0
0
0
0
0
0
0
0
0
0
0
0
0
0
0
0
0
0
0
0
0
0
0
0
0
0
0
0
0
0
0
0
0
0
0
0
0
0
0
0
0
0
0
0
0
0
0
0
0
0
0
0
0
0
0
0
0
0
0
0
0
0
0
0
0
0
0
0
0
0
1
1
1
1
1
0
0
0
0
0
0
0
0
0
0
0
0
0
0
0
0
0
0
0
0
0
0
0
0
0
0
0
0
0
0
0
0
0
0
0
0
0
0
0
0
0
0
0
0
0
0
0
0
0
0
0
0
0
0
0
0
0
0
0
0
0
0
0
0
0
0
0
0
0
0
0
0
0
0
0
0
0
0
0
0
0
0
0
0
0
0
0
0
0
0
0
0
0
0
0
0
0
0
0
0
0
0
0
0
0
0
0
0
0
0
0
0
0
0
0
0
0
0
0
0
0
0
0
0
0
0
0
0
0
0
0
0
0
0
0
0
0
0
0
0
0
0
0
0
0
0
0
0
0
0
0
0
0
0
0
0
0
0
0
0
0
0
1
1
1
1
1
1
0
0
0
0
0
0
0
0
0
0
0
0
0
0
0
0
0
0
0
0
0
0
0
0
0
0
0
0
0
0
0
0
0
0
0
0
0
0
0
0
0
0
0
0
0
0
0
0
0
0
0
0
0
0
0
0
0
0
0
0
0
0
0
0
0
0
0
0
0
0
0
0
0
0
0
0
0
0
0
0
0
0
0
0
0
0
0
0
0
0
0
0
0
0
0
0
0
0
0
0
0
0
0
0
0
0
0
0
0
0
0
0
0
0
0
0
0
0
0
0
0
0
0
0
0
0
0
0
0
0
0
0
0
0
0
0
0
0
0
0
0
0
0
0
0
0
0
0
0
0
0
0
0
0
0
0
0
0
0
0
0
